# xmcd
#
# Track frame offsets: 
#        150
#        23850
#        43310
#        59734
#        76183
#        97074
#        120980
#        137884
#        164057
#        183385
#        201591
#        217897
#
# Disc length: 3167 seconds
#
# Revision: 0
# Processed by: cddbd v1.5.2PL0 Copyright (c) Steve Scherf et al.
# Submitted via: ExactAudioCopyFreeDBPlugin 1.0
#
DISCID=b50c5d0c
DTITLE=Projektchor des Evangelischen Sängerbundes mit Sarah Kaiser - L
DTITLE=eben mit Dir
DYEAR=2010
DGENRE=Christian Rock
TTITLE0=Herr, nur dir
TTITLE1=Lobpreis und Ehre
TTITLE2=Leben mit dir
TTITLE3=Bis Jesus wiederkommt
TTITLE4=Dein Kind
TTITLE5=Nicht uns, Herr, nicht uns
TTITLE6=Dich allein
TTITLE7=Vater
TTITLE8=In deiner Hand
TTITLE9=Komm
TTITLE10=Bereit sein
TTITLE11=Ich rufe zu Dir
EXTD=
EXTT0=
EXTT1=
EXTT2=
EXTT3=
EXTT4=
EXTT5=
EXTT6=
EXTT7=
EXTT8=
EXTT9=
EXTT10=
EXTT11=
PLAYORDER=
